# xmcd
#
# Track frame offsets:
#	150
#	13477
#	28095
#	42198
#	53703
#	64398
#	76993
#	86619
#	98034
#	114430
#	126175
#	139226
#	156024
#	166511
#	177707
#	189625
#	204407
#	215567
#	227095
#	240742
#	254044
#	264040
#	277936
#
# Disc length: 3911 seconds
#
# Revision: 0
# Processed by: cddbd v1.5.2PL0 Copyright (c) Steve Scherf et al.
# Submitted via: dBpowerAMP V4.0
#
DISCID=450f4517
DTITLE=Chris LeDoux - Chris LeDoux - Songs Of Rodeo And Country/Life As A Rodeo Man
DYEAR=2007
DGENRE=Country
TTITLE0=The Buckskin Lady
TTITLE1=Oklahoma Joe
TTITLE2=Daydream Cowboy
TTITLE3=Rodeo, You've Cast A Spell
TTITLE4=True Western Movie
TTITLE5=Joad'e The Rodeo Clown
TTITLE6=Mighty Lucky Man
TTITLE7=Easy Come, Easy Go
TTITLE8=The Only Road You Know
TTITLE9=She's In Love With A Rodeo Man
TTITLE10=Real Live Buckeroo
TTITLE11=Rusty Spurs
TTITLE12=Amarillo By Morning
TTITLE13=Time
TTITLE14=Born To Follow Rodeo
TTITLE15=Caballo Diablo
TTITLE16=Wyoming Girl
TTITLE17=I'm Country
TTITLE18=Rhinestone Cowboy
TTITLE19=Long Black Veil
TTITLE20=Rodeo Rose
TTITLE21=All Around Cowboy Of 1964
TTITLE22=John Ed Sang Cowpoke
EXTD=
EXTT0=
EXTT1=
EXTT2=
EXTT3=
EXTT4=
EXTT5=
EXTT6=
EXTT7=
EXTT8=
EXTT9=
EXTT10=
EXTT11=
EXTT12=
EXTT13=
EXTT14=
EXTT15=
EXTT16=
EXTT17=
EXTT18=
EXTT19=
EXTT20=
EXTT21=
EXTT22=
PLAYORDER=
